<svg width="24" height="24" viewBox="0 0 24 24" fill="none" xmlns="http://www.w3.org/2000/svg">
<path d="M2 3.43268C2 2.64164 2.66169 2 3.47796 2H20.522C21.3383 2 22 2.64164 22 3.43268V20.5673C22 21.3586 21.3383 22 20.522 22H3.47796C2.66169 22 2 21.3586 2 20.5673V3.43268Z" fill="#0B66C2"/>
<path fill-rule="evenodd" clip-rule="evenodd" d="M8.94608 17.8789V9.97612H6.31934V17.8789H8.94608ZM7.6327 8.89713C8.5487 8.89713 9.11883 8.29028 9.11883 7.5319C9.10176 6.75645 8.5487 6.16644 7.65008 6.16644C6.75155 6.16644 6.16406 6.75645 6.16406 7.5319C6.16406 8.29028 6.73407 8.89713 7.61558 8.89713H7.6327Z" fill="white"/>
<path fill-rule="evenodd" clip-rule="evenodd" d="M10.3984 17.8789H13.0252V13.4657C13.0252 13.2295 13.0422 12.9935 13.1116 12.8247C13.3015 12.3528 13.7337 11.864 14.4593 11.864C15.4098 11.864 15.79 12.5887 15.79 13.6511V17.8789H18.4165V13.3476C18.4165 10.9202 17.1206 9.79068 15.3925 9.79068C13.9754 9.79068 13.3533 10.5827 13.0077 11.1222H13.0252V9.97612H10.3985C10.433 10.7177 10.3984 17.8789 10.3984 17.8789Z" fill="white"/>
</svg>
