<svg width="10" height="13" viewBox="0 0 10 13" fill="none" xmlns="http://www.w3.org/2000/svg">
<rect y="1.59961" width="0.8" height="0.8" fill="white"/>
<rect y="8" width="0.8" height="0.8" fill="white"/>
<rect y="4.7998" width="0.8" height="0.8" fill="white"/>
<rect y="11.1997" width="0.8" height="0.8" fill="white"/>
<rect x="3.19971" y="1.59961" width="0.8" height="0.8" fill="white"/>
<rect x="3.19971" y="8" width="0.8" height="0.8" fill="white"/>
<rect x="3.19971" y="4.7998" width="0.8" height="0.8" fill="white"/>
<rect x="3.19971" y="11.1997" width="0.8" height="0.8" fill="white"/>
<rect x="6.3999" y="1.59961" width="0.8" height="0.8" fill="white"/>
<rect x="6.3999" y="8" width="0.8" height="0.8" fill="white"/>
<rect x="6.3999" y="4.7998" width="0.8" height="0.8" fill="white"/>
<rect x="6.3999" y="11.1997" width="0.8" height="0.8" fill="white"/>
<rect x="1.6001" width="0.8" height="0.8" fill="white"/>
<rect x="1.6001" y="6.3999" width="0.8" height="0.8" fill="white"/>
<rect x="1.6001" y="3.19971" width="0.8" height="0.8" fill="white"/>
<rect x="1.6001" y="9.59961" width="0.8" height="0.8" fill="white"/>
<rect x="4.7998" width="0.8" height="0.8" fill="white"/>
<rect x="4.7998" y="6.3999" width="0.8" height="0.8" fill="white"/>
<rect x="4.7998" y="3.19971" width="0.8" height="0.8" fill="white"/>
<rect x="4.7998" y="9.59961" width="0.8" height="0.8" fill="white"/>
<rect x="8" width="0.8" height="0.8" fill="white"/>
<rect x="8" y="6.3999" width="0.8" height="0.8" fill="white"/>
<rect x="8" y="3.19971" width="0.8" height="0.8" fill="white"/>
<rect x="8" y="9.59961" width="0.8" height="0.8" fill="white"/>
</svg>
