<svg width="24" height="25" viewBox="0 0 24 25" fill="none" xmlns="http://www.w3.org/2000/svg">
<g clip-path="url(#clip0_1307_2729)">
<path d="M7.94111e-05 14.2479L0.0598745 5.24838C0.0706988 3.6193 1.20959 2.22372 2.78267 1.91191L11.4727 0.189412C13.561 -0.224518 15.4989 1.40947 15.4846 3.57211L15.4247 12.5715C15.4139 14.2006 14.2751 15.5962 12.702 15.9081L4.01187 17.6305C1.92357 18.0445 -0.0142897 16.4105 7.94111e-05 14.2479Z" fill="#111827" fill-opacity="0.2"/>
<path d="M4.25789 17.8377L4.31768 8.83822C4.32851 7.20915 5.4674 5.81356 7.04047 5.50176L15.7306 3.77925C17.8189 3.36533 19.7567 4.99931 19.7423 7.16196L19.6826 16.1614C19.6718 17.7905 18.5328 19.1861 16.9598 19.4979L8.26967 21.2204C6.18138 21.6343 4.24352 20.0003 4.25789 17.8377Z" fill="#111827" fill-opacity="0.5"/>
<path d="M8.5157 21.4276L8.57555 12.4281C8.58635 10.7989 9.72523 9.40342 11.2983 9.09157L19.9884 7.3691C22.0767 6.95517 24.0146 8.58915 24.0002 10.7518L23.9404 19.7512C23.9296 21.3803 22.7907 22.7759 21.2176 23.0878L12.5275 24.8102C10.4392 25.2241 8.50138 23.5902 8.5157 21.4276Z" fill="#111827" fill-opacity="0.8"/>
</g>
<defs>
<clipPath id="clip0_1307_2729">
<rect width="24" height="24.75" fill="white" transform="translate(0 0.125)"/>
</clipPath>
</defs>
</svg>
