<svg width="24" height="25" viewBox="0 0 24 25" fill="none" xmlns="http://www.w3.org/2000/svg">
<path fill-rule="evenodd" clip-rule="evenodd" d="M0 2.15395C0 1.19869 0.794024 0.423828 1.77355 0.423828H22.2264C23.2059 0.423828 24 1.19869 24 2.15395V22.846C24 23.8016 23.2059 24.5761 22.2264 24.5761H1.77355C0.794024 24.5761 0 23.8016 0 22.846V2.15395ZM7.27537 20.6417V9.73556H3.65039V20.6417H7.27537ZM5.46286 8.24652C6.72697 8.24652 7.51377 7.40905 7.51377 6.36246C7.49021 5.29231 6.72697 4.47808 5.48684 4.47808C4.24684 4.47808 3.4361 5.29231 3.4361 6.36246C3.4361 7.40905 4.22273 8.24652 5.43923 8.24652H5.46286ZM12.9056 20.6417H9.28068C9.28068 20.6417 9.32835 10.7589 9.28078 9.73556H12.9057V11.2797C12.8975 11.2923 12.8895 11.3048 12.8815 11.3172H12.9057V11.2797C13.3875 10.5365 14.2497 9.47964 16.1726 9.47964C18.5575 9.47964 20.3459 11.0384 20.3459 14.3883V20.6417H16.7213V14.8072C16.7213 13.341 16.1965 12.3409 14.8848 12.3409C13.8834 12.3409 13.287 13.0154 13.0249 13.6666C12.9292 13.8997 12.9056 14.2253 12.9056 14.5512V20.6417Z" fill="#0B66C2"/>
</svg>
