<svg width="24" height="25" viewBox="0 0 24 25" fill="none" xmlns="http://www.w3.org/2000/svg">
<path d="M21.4799 7.64091C21.4944 7.85091 21.4944 8.06091 21.4944 8.27284C21.4944 14.7306 16.5783 22.1783 7.58895 22.1783V22.1745C4.93346 22.1783 2.33314 21.4177 0.0976562 19.9835C0.483785 20.0299 0.87185 20.0532 1.26088 20.0541C3.46153 20.0561 5.59927 19.3177 7.33056 17.958C5.23927 17.9183 3.4054 16.5548 2.76475 14.5641C3.49733 14.7054 4.25217 14.6764 4.9712 14.4799C2.6912 14.0193 1.05088 12.0161 1.05088 9.68962V9.62768C1.73024 10.0061 2.49088 10.2161 3.26895 10.2393C1.12153 8.80413 0.459592 5.94736 1.75637 3.71381C4.23766 6.76704 7.89862 8.62316 11.8286 8.81962C11.4348 7.1222 11.9728 5.34349 13.2425 4.15026C15.2109 2.29994 18.3067 2.39478 20.157 4.3622C21.2515 4.14639 22.3006 3.74478 23.2606 3.17575C22.8957 4.30704 22.1322 5.268 21.1122 5.87865C22.0809 5.76446 23.0273 5.5051 23.9186 5.10929C23.2625 6.09252 22.436 6.94897 21.4799 7.64091Z" fill="#1D9BF0"/>
</svg>
